<svg xmlns="http://www.w3.org/2000/svg" xmlns:xlink="http://www.w3.org/1999/xlink" width="2000" zoomAndPan="magnify" viewBox="0 0 1500 1499.999933" height="2000" preserveAspectRatio="xMidYMid meet" version="1.0"><path stroke-linecap="butt" transform="matrix(0.708432, -0.246218, 0.246218, 0.708432, 295.065565, 791.333048)" fill="none" stroke-linejoin="miter" d="M 18.865403 87.191067 C 140.566388 37.604438 273.19356 37.602949 416.751839 87.188308 " stroke="#ffffff" stroke-width="100" stroke-opacity="1" stroke-miterlimit="4"/><path stroke-linecap="butt" transform="matrix(0.75, 0.000000000000000227, -0.000000000000000227, 0.75, 609.505877, 712.977039)" fill="none" stroke-linejoin="miter" d="M 0.00258087 49.99937 L 375.726572 49.99937 " stroke="#ffffff" stroke-width="100" stroke-opacity="1" stroke-miterlimit="4"/><path stroke-linecap="butt" transform="matrix(0.653774, -0.367531, 0.367531, 0.653774, 447.880723, 1074.813511)" fill="none" stroke-linejoin="miter" d="M 21.834632 96.167034 C 148.642708 34.614038 265.824802 34.610556 373.39198 96.168786 " stroke="#ffffff" stroke-width="100" stroke-opacity="1" stroke-miterlimit="4"/><path stroke-linecap="butt" transform="matrix(0.685486, -0.304317, 0.304317, 0.685486, 358.300843, 942.313891)" fill="none" stroke-linejoin="miter" d="M 18.086755 92.844131 C 165.309767 35.719044 303.520615 35.721005 432.721411 92.845254 " stroke="#ffffff" stroke-width="100" stroke-opacity="1" stroke-miterlimit="4"/><path stroke-linecap="butt" transform="matrix(0.75, 0, 0, 0.75, 681.678311, 836.772508)" fill="none" stroke-linejoin="miter" d="M 0.00183582 50.001244 L 613.361264 50.001244 " stroke="#ffffff" stroke-width="100" stroke-opacity="1" stroke-miterlimit="4"/><path stroke-linecap="butt" transform="matrix(-0.709244, 0.24387, -0.24387, -0.709244, 1204.924154, 710.675007)" fill="none" stroke-linejoin="miter" d="M 18.865311 87.188889 C 140.565608 37.602924 273.194472 37.603646 416.751906 87.191054 " stroke="#ffffff" stroke-width="100" stroke-opacity="1" stroke-miterlimit="4"/><path stroke-linecap="butt" transform="matrix(-0.653774, 0.367531, -0.367531, -0.653774, 1052.113767, 426.136095)" fill="none" stroke-linejoin="miter" d="M 21.832514 96.166436 C 148.64059 34.61344 265.827224 34.612511 373.392414 96.163649 " stroke="#ffffff" stroke-width="100" stroke-opacity="1" stroke-miterlimit="4"/><path stroke-linecap="butt" transform="matrix(-0.685486, 0.304317, -0.304317, -0.685486, 1141.697287, 558.637204)" fill="none" stroke-linejoin="miter" d="M 18.085575 92.840645 C 165.306474 35.720319 303.519434 35.717519 432.720231 92.841768 " stroke="#ffffff" stroke-width="100" stroke-opacity="1" stroke-miterlimit="4"/><path stroke-linecap="butt" transform="matrix(-0.75, 0, 0, -0.75, 818.319803, 664.181587)" fill="none" stroke-linejoin="miter" d="M -0.000679513 50.002537 L 613.363957 50.002537 " stroke="#ffffff" stroke-width="100" stroke-opacity="1" stroke-miterlimit="4"/></svg>