<svg xmlns="http://www.w3.org/2000/svg" xmlns:xlink="http://www.w3.org/1999/xlink" width="2000" zoomAndPan="magnify" viewBox="0 0 1500 1499.999933" height="2000" preserveAspectRatio="xMidYMid meet" version="1.0"><defs><g/><clipPath id="411fe7be5a"><rect x="0" width="956" y="0" height="336"/></clipPath></defs><g transform="matrix(1, 0, 0, 1, 418, 582)"><g clip-path="url(#411fe7be5a)"><g fill="#121212" fill-opacity="1"><g transform="translate(0.0900169, 266.533214)"><g><path d="M 17.859375 0.875 C 16.097656 0.875 14.78125 0.242188 13.90625 -1.015625 C 13.03125 -2.285156 12.59375 -3.800781 12.59375 -5.5625 C 12.789062 -8.488281 13.375 -10.242188 14.34375 -10.828125 C 15.320312 -11.421875 17.175781 -11.71875 19.90625 -11.71875 C 25.570312 -11.71875 29.769531 -12.738281 32.5 -14.78125 C 35.238281 -16.832031 36.945312 -19.367188 37.625 -22.390625 C 38.3125 -25.421875 38.75 -29.378906 38.9375 -34.265625 L 38.9375 -150.21875 C 38.75 -155.289062 38.3125 -159.289062 37.625 -162.21875 C 36.945312 -165.144531 35.238281 -167.679688 32.5 -169.828125 C 29.769531 -171.972656 25.570312 -173.046875 19.90625 -173.046875 L 18.15625 -173.046875 C 16.195312 -173.046875 14.828125 -173.390625 14.046875 -174.078125 C 13.273438 -174.765625 12.789062 -176.472656 12.59375 -179.203125 C 12.59375 -180.960938 13.03125 -182.472656 13.90625 -183.734375 C 14.78125 -185.003906 16.097656 -185.640625 17.859375 -185.640625 C 30.546875 -185.054688 42.160156 -184.765625 52.703125 -184.765625 L 103.0625 -184.765625 C 118.09375 -184.566406 130.632812 -182.171875 140.6875 -177.578125 C 150.75 -172.992188 158.117188 -167.140625 162.796875 -160.015625 C 167.484375 -152.890625 169.828125 -145.226562 169.828125 -137.03125 C 169.828125 -126.300781 165.582031 -116.445312 157.09375 -107.46875 C 148.601562 -98.488281 137.035156 -92.046875 122.390625 -88.140625 L 127.375 -80.234375 C 135.570312 -66.953125 142.988281 -55.578125 149.625 -46.109375 C 156.257812 -36.648438 163.484375 -27.820312 171.296875 -19.625 C 176.765625 -15.132812 182.617188 -12.5 188.859375 -11.71875 C 189.253906 -11.71875 190.132812 -11.664062 191.5 -11.5625 C 192.863281 -11.46875 193.984375 -10.929688 194.859375 -9.953125 C 195.742188 -8.972656 196.1875 -7.507812 196.1875 -5.5625 C 196.1875 -3.800781 195.742188 -2.285156 194.859375 -1.015625 C 193.984375 0.242188 192.664062 0.875 190.90625 0.875 L 183.296875 0.578125 C 174.710938 0.191406 168.46875 0 164.5625 0 C 156.75 -1.5625 150.0625 -4.34375 144.5 -8.34375 C 138.9375 -12.34375 133.421875 -18.050781 127.953125 -25.46875 C 122.296875 -32.894531 114.390625 -45 104.234375 -61.78125 L 98.96875 -70.28125 C 96.039062 -74.769531 93.207031 -77.84375 90.46875 -79.5 C 87.738281 -81.15625 83.054688 -81.984375 76.421875 -81.984375 L 67.9375 -81.984375 L 67.9375 -34.265625 C 68.125 -29.378906 68.5625 -25.421875 69.25 -22.390625 C 69.9375 -19.367188 71.644531 -16.832031 74.375 -14.78125 C 77.101562 -12.738281 81.300781 -11.71875 86.96875 -11.71875 L 88.71875 -11.71875 C 90.476562 -11.71875 91.796875 -11.375 92.671875 -10.6875 C 93.554688 -10 94.09375 -8.289062 94.28125 -5.5625 C 94.28125 -3.800781 93.84375 -2.285156 92.96875 -1.015625 C 92.09375 0.242188 90.773438 0.875 89.015625 0.875 C 76.523438 0.289062 64.320312 0 52.40625 0 C 42.0625 0 30.546875 0.289062 17.859375 0.875 Z M 93.703125 -93.40625 C 122.785156 -93.40625 137.328125 -107.070312 137.328125 -134.40625 C 137.328125 -145.53125 133.519531 -154.898438 125.90625 -162.515625 C 118.289062 -170.128906 105.796875 -173.9375 88.421875 -173.9375 C 82.765625 -173.9375 78.472656 -173.25 75.546875 -171.875 C 72.617188 -170.507812 70.617188 -168.164062 69.546875 -164.84375 C 68.472656 -161.53125 67.9375 -156.457031 67.9375 -149.625 L 67.9375 -93.40625 Z M 93.703125 -93.40625 "/></g></g></g><g fill="#121212" fill-opacity="1"><g transform="translate(173.14344, 266.533214)"><g><path d="M 70.28125 3.515625 C 57 3.515625 46.453125 -0.484375 38.640625 -8.484375 C 30.835938 -16.492188 26.9375 -27.035156 26.9375 -40.109375 L 26.9375 -94.28125 C 26.9375 -99.363281 26.789062 -103.070312 26.5 -105.40625 C 26.207031 -107.75 24.988281 -109.800781 22.84375 -111.5625 C 20.695312 -113.320312 17.082031 -114.203125 12 -114.203125 C 9.65625 -114.203125 7.898438 -114.539062 6.734375 -115.21875 C 5.566406 -115.90625 4.984375 -117.515625 4.984375 -120.046875 C 4.984375 -121.222656 5.375 -122.347656 6.15625 -123.421875 C 6.9375 -124.492188 8.101562 -125.128906 9.65625 -125.328125 C 21.957031 -127.078125 32.5 -129.613281 41.28125 -132.9375 C 44.019531 -133.914062 46.265625 -134.5 48.015625 -134.6875 L 48.90625 -134.6875 C 52.019531 -134.6875 53.578125 -132.832031 53.578125 -129.125 L 53.578125 -40.40625 C 53.578125 -31.425781 56.40625 -24.546875 62.0625 -19.765625 C 67.726562 -14.984375 74.269531 -12.59375 81.6875 -12.59375 C 90.863281 -12.59375 98.671875 -14.835938 105.109375 -19.328125 C 111.554688 -23.816406 115.851562 -28.304688 118 -32.796875 L 118 -94.28125 C 118 -99.363281 117.851562 -103.070312 117.5625 -105.40625 C 117.269531 -107.75 116.050781 -109.800781 113.90625 -111.5625 C 111.757812 -113.320312 108.144531 -114.203125 103.0625 -114.203125 C 100.726562 -114.203125 98.972656 -114.539062 97.796875 -115.21875 C 96.628906 -115.90625 96.046875 -117.515625 96.046875 -120.046875 C 96.046875 -121.222656 96.4375 -122.347656 97.21875 -123.421875 C 98 -124.492188 99.171875 -125.128906 100.734375 -125.328125 C 113.023438 -127.078125 123.5625 -129.613281 132.34375 -132.9375 C 135.082031 -133.914062 137.332031 -134.5 139.09375 -134.6875 L 139.96875 -134.6875 C 143.09375 -134.6875 144.65625 -132.832031 144.65625 -129.125 L 144.65625 -27.8125 C 144.65625 -16.300781 152.363281 -10.546875 167.78125 -10.546875 C 171.101562 -10.546875 172.765625 -8.691406 172.765625 -4.984375 C 172.765625 -2.242188 171.101562 -0.582031 167.78125 0 L 120.640625 3.21875 C 119.273438 3.21875 118.492188 2.773438 118.296875 1.890625 C 118.097656 1.015625 118 -0.492188 118 -2.640625 L 118 -19.03125 L 117.421875 -19.03125 C 111.753906 -13.757812 107.164062 -9.707031 103.65625 -6.875 C 100.144531 -4.050781 95.601562 -1.613281 90.03125 0.4375 C 84.46875 2.488281 77.882812 3.515625 70.28125 3.515625 Z M 70.28125 3.515625 "/></g></g></g><g fill="#121212" fill-opacity="1"><g transform="translate(324.235701, 266.533214)"><g><path d="M 28.40625 4.09375 C 26.644531 4.09375 25.273438 3.554688 24.296875 2.484375 C 23.328125 1.410156 22.84375 0 22.84375 -1.75 L 22.84375 -172.765625 C 22.84375 -177.835938 22.695312 -181.546875 22.40625 -183.890625 C 22.113281 -186.234375 20.890625 -188.28125 18.734375 -190.03125 C 16.585938 -191.789062 12.976562 -192.671875 7.90625 -192.671875 C 5.5625 -192.671875 3.800781 -193.007812 2.625 -193.6875 C 1.457031 -194.375 0.875 -195.988281 0.875 -198.53125 C 0.875 -199.695312 1.265625 -200.816406 2.046875 -201.890625 C 2.828125 -202.960938 4 -203.597656 5.5625 -203.796875 C 17.863281 -205.554688 28.40625 -208.09375 37.1875 -211.40625 C 39.914062 -212.382812 42.160156 -212.972656 43.921875 -213.171875 L 44.796875 -213.171875 C 47.921875 -213.171875 49.484375 -211.316406 49.484375 -207.609375 L 49.484375 -119.171875 L 50.359375 -119.171875 C 56.023438 -124.835938 62.421875 -129.082031 69.546875 -131.90625 C 76.671875 -134.738281 83.742188 -136.15625 90.765625 -136.15625 C 102.285156 -136.15625 112.726562 -133.226562 122.09375 -127.375 C 131.46875 -121.519531 138.835938 -113.367188 144.203125 -102.921875 C 149.578125 -92.484375 152.265625 -80.625 152.265625 -67.34375 C 152.265625 -54.269531 149.1875 -42.3125 143.03125 -31.46875 C 136.882812 -20.632812 128.640625 -12.09375 118.296875 -5.84375 C 107.953125 0.394531 96.921875 3.515625 85.203125 3.515625 C 67.828125 3.515625 52.796875 -1.265625 40.109375 -10.828125 L 38.65625 -10.828125 C 37.875 -9.265625 36.992188 -7.117188 36.015625 -4.390625 C 35.035156 -1.660156 33.957031 0.429688 32.78125 1.890625 C 31.613281 3.359375 30.15625 4.09375 28.40625 4.09375 Z M 82.578125 -6.4375 C 94.484375 -6.4375 104.09375 -11.851562 111.40625 -22.6875 C 118.726562 -33.519531 122.390625 -48.015625 122.390625 -66.171875 C 122.390625 -81.398438 118.875 -94.429688 111.84375 -105.265625 C 104.820312 -116.097656 94.382812 -121.515625 80.53125 -121.515625 C 68.226562 -121.515625 57.878906 -117.023438 49.484375 -108.046875 L 49.484375 -30.75 C 50.066406 -27.625 51.773438 -24.15625 54.609375 -20.34375 C 57.441406 -16.539062 61.25 -13.269531 66.03125 -10.53125 C 70.8125 -7.800781 76.328125 -6.4375 82.578125 -6.4375 Z M 82.578125 -6.4375 "/></g></g></g><g fill="#121212" fill-opacity="1"><g transform="translate(465.079496, 266.533214)"><g><path d="M 14.34375 0.875 C 12.976562 0.875 11.851562 0.289062 10.96875 -0.875 C 10.09375 -2.050781 9.65625 -3.421875 9.65625 -4.984375 C 9.851562 -7.515625 10.441406 -9.023438 11.421875 -9.515625 C 12.398438 -10.003906 14.15625 -10.25 16.6875 -10.25 C 21.757812 -10.25 25.367188 -11.125 27.515625 -12.875 C 29.671875 -14.632812 30.894531 -16.6875 31.1875 -19.03125 C 31.476562 -21.375 31.625 -25.082031 31.625 -30.15625 L 31.625 -97.21875 C 31.625 -102.289062 31.476562 -106 31.1875 -108.34375 C 30.894531 -110.6875 29.671875 -112.734375 27.515625 -114.484375 C 25.367188 -116.242188 21.757812 -117.125 16.6875 -117.125 C 14.34375 -117.125 12.582031 -117.460938 11.40625 -118.140625 C 10.238281 -118.828125 9.65625 -120.441406 9.65625 -122.984375 C 9.65625 -124.148438 10.046875 -125.269531 10.828125 -126.34375 C 11.609375 -127.414062 12.78125 -128.050781 14.34375 -128.25 C 26.644531 -130.007812 37.1875 -132.546875 45.96875 -135.859375 C 48.707031 -136.835938 50.953125 -137.425781 52.703125 -137.625 L 53.578125 -137.625 C 56.703125 -137.625 58.265625 -135.769531 58.265625 -132.0625 L 58.265625 -30.15625 C 58.265625 -25.082031 58.457031 -21.375 58.84375 -19.03125 C 59.238281 -16.6875 60.507812 -14.632812 62.65625 -12.875 C 64.8125 -11.125 68.425781 -10.25 73.5 -10.25 L 75.25 -10.25 C 76.8125 -10.25 77.984375 -9.953125 78.765625 -9.359375 C 79.546875 -8.773438 80.035156 -7.316406 80.234375 -4.984375 C 80.234375 -3.421875 79.84375 -2.050781 79.0625 -0.875 C 78.28125 0.289062 77.109375 0.875 75.546875 0.875 C 64.222656 0.289062 53.972656 0 44.796875 0 C 36.015625 0 25.863281 0.289062 14.34375 0.875 Z M 43.328125 -170.125 C 37.859375 -170.125 33.269531 -171.832031 29.5625 -175.25 C 25.851562 -178.664062 24 -182.910156 24 -187.984375 C 24 -192.472656 26.242188 -196.472656 30.734375 -199.984375 C 35.222656 -203.503906 40.300781 -205.265625 45.96875 -205.265625 C 50.84375 -205.265625 54.84375 -203.554688 57.96875 -200.140625 C 61.09375 -196.722656 62.65625 -192.378906 62.65625 -187.109375 C 62.65625 -182.421875 60.800781 -178.414062 57.09375 -175.09375 C 53.382812 -171.78125 48.796875 -170.125 43.328125 -170.125 Z M 43.328125 -170.125 "/></g></g></g><g fill="#121212" fill-opacity="1"><g transform="translate(528.327124, 266.533214)"><g><path d="M 75.84375 3.515625 C 55.925781 3.515625 40.304688 -2.828125 28.984375 -15.515625 C 17.660156 -28.203125 12 -45.1875 12 -66.46875 C 12.394531 -79.738281 15.664062 -91.59375 21.8125 -102.03125 C 27.957031 -112.476562 36.203125 -120.679688 46.546875 -126.640625 C 56.898438 -132.597656 68.320312 -135.769531 80.8125 -136.15625 C 93.3125 -136.15625 104.097656 -133.8125 113.171875 -129.125 C 122.242188 -124.445312 126.78125 -116.640625 126.78125 -105.703125 C 126.78125 -99.648438 124.972656 -94.328125 121.359375 -89.734375 C 117.753906 -85.148438 112.925781 -82.859375 106.875 -82.859375 C 103.164062 -82.859375 99.992188 -83.832031 97.359375 -85.78125 C 94.722656 -87.738281 93.40625 -89.398438 93.40625 -90.765625 C 93.40625 -90.960938 94.28125 -91.84375 96.03125 -93.40625 C 97.789062 -94.96875 99.398438 -96.867188 100.859375 -99.109375 C 102.328125 -101.359375 103.0625 -103.945312 103.0625 -106.875 C 103.0625 -112.925781 100.863281 -117.515625 96.46875 -120.640625 C 92.082031 -123.765625 86.769531 -125.328125 80.53125 -125.328125 C 65.5 -125.328125 55.296875 -119.8125 49.921875 -108.78125 C 44.554688 -97.75 41.875 -83.9375 41.875 -67.34375 C 41.875 -50.945312 45.582031 -37.476562 53 -26.9375 C 60.414062 -16.394531 70.273438 -11.125 82.578125 -11.125 C 90.972656 -11.125 98.144531 -12.929688 104.09375 -16.546875 C 110.050781 -20.160156 115.46875 -25.675781 120.34375 -33.09375 C 120.925781 -34.0625 121.90625 -34.546875 123.28125 -34.546875 C 124.25 -34.546875 125.320312 -34.253906 126.5 -33.671875 C 127.46875 -33.285156 128.242188 -32.601562 128.828125 -31.625 C 129.421875 -30.644531 129.71875 -29.671875 129.71875 -28.703125 C 129.71875 -28.109375 129.425781 -27.328125 128.84375 -26.359375 C 122.394531 -17.179688 114.390625 -9.90625 104.828125 -4.53125 C 95.265625 0.832031 85.601562 3.515625 75.84375 3.515625 Z M 75.84375 3.515625 "/></g></g></g><g fill="#121212" fill-opacity="1"><g transform="translate(643.988689, 266.533214)"><g><path d="M 80.234375 3.515625 C 66.953125 3.515625 55.140625 0.339844 44.796875 -6 C 34.453125 -12.34375 26.398438 -20.734375 20.640625 -31.171875 C 14.878906 -41.617188 12 -52.703125 12 -64.421875 C 12 -79.054688 15.414062 -91.789062 22.25 -102.625 C 29.082031 -113.457031 37.769531 -121.753906 48.3125 -127.515625 C 58.851562 -133.273438 69.492188 -136.15625 80.234375 -136.15625 C 93.503906 -136.15625 105.3125 -132.984375 115.65625 -126.640625 C 126.007812 -120.296875 134.0625 -111.898438 139.8125 -101.453125 C 145.570312 -91.015625 148.453125 -79.9375 148.453125 -68.21875 C 148.453125 -53.582031 144.988281 -40.847656 138.0625 -30.015625 C 131.132812 -19.179688 122.398438 -10.882812 111.859375 -5.125 C 101.316406 0.632812 90.773438 3.515625 80.234375 3.515625 Z M 80.234375 -7.328125 C 93.503906 -7.328125 103.210938 -12.984375 109.359375 -24.296875 C 115.515625 -35.617188 118.59375 -50.257812 118.59375 -68.21875 C 118.59375 -85.007812 115.421875 -98.722656 109.078125 -109.359375 C 102.734375 -120.003906 93.117188 -125.328125 80.234375 -125.328125 C 66.765625 -125.328125 57.003906 -119.757812 50.953125 -108.625 C 44.898438 -97.5 41.875 -82.957031 41.875 -65 C 41.875 -48.21875 44.992188 -34.410156 51.234375 -23.578125 C 57.484375 -12.742188 67.148438 -7.328125 80.234375 -7.328125 Z M 80.234375 -7.328125 "/></g></g></g><g fill="#121212" fill-opacity="1"><g transform="translate(781.02586, 266.533214)"><g><path d="M 14.34375 0.875 C 12.976562 0.875 11.851562 0.289062 10.96875 -0.875 C 10.09375 -2.050781 9.65625 -3.421875 9.65625 -4.984375 C 9.851562 -7.515625 10.441406 -9.023438 11.421875 -9.515625 C 12.398438 -10.003906 14.15625 -10.25 16.6875 -10.25 C 21.757812 -10.25 25.367188 -11.125 27.515625 -12.875 C 29.671875 -14.632812 30.894531 -16.6875 31.1875 -19.03125 C 31.476562 -21.375 31.625 -25.082031 31.625 -30.15625 L 31.625 -97.21875 C 31.625 -102.289062 31.476562 -106 31.1875 -108.34375 C 30.894531 -110.6875 29.671875 -112.734375 27.515625 -114.484375 C 25.367188 -116.242188 21.757812 -117.125 16.6875 -117.125 C 14.34375 -117.125 12.582031 -117.460938 11.40625 -118.140625 C 10.238281 -118.828125 9.65625 -120.441406 9.65625 -122.984375 C 9.65625 -124.148438 10.046875 -125.269531 10.828125 -126.34375 C 11.609375 -127.414062 12.78125 -128.050781 14.34375 -128.25 C 27.03125 -130.207031 37.472656 -132.742188 45.671875 -135.859375 C 48.992188 -136.835938 51.238281 -137.425781 52.40625 -137.625 L 53.296875 -137.625 C 56.421875 -137.625 57.984375 -135.769531 57.984375 -132.0625 L 57.984375 -113.609375 L 58.859375 -113.609375 C 64.515625 -118.878906 69.097656 -122.929688 72.609375 -125.765625 C 76.128906 -128.597656 80.671875 -131.035156 86.234375 -133.078125 C 91.796875 -135.128906 98.382812 -136.15625 106 -136.15625 C 119.269531 -136.15625 129.804688 -132.148438 137.609375 -124.140625 C 145.421875 -116.140625 149.328125 -105.601562 149.328125 -92.53125 L 149.328125 -30.15625 C 149.328125 -25.082031 149.519531 -21.375 149.90625 -19.03125 C 150.300781 -16.6875 151.570312 -14.632812 153.71875 -12.875 C 155.875 -11.125 159.488281 -10.25 164.5625 -10.25 L 166.3125 -10.25 C 167.875 -10.25 169.046875 -9.953125 169.828125 -9.359375 C 170.609375 -8.773438 171.097656 -7.316406 171.296875 -4.984375 C 171.296875 -3.421875 170.851562 -2.050781 169.96875 -0.875 C 169.09375 0.289062 167.972656 0.875 166.609375 0.875 C 155.285156 0.289062 145.035156 0 135.859375 0 C 127.078125 0 116.925781 0.289062 105.40625 0.875 C 104.039062 0.875 102.921875 0.289062 102.046875 -0.875 C 101.171875 -2.050781 100.734375 -3.421875 100.734375 -4.984375 C 100.921875 -7.515625 101.453125 -9.023438 102.328125 -9.515625 C 103.210938 -10.003906 104.925781 -10.25 107.46875 -10.25 C 112.539062 -10.25 116.148438 -11.125 118.296875 -12.875 C 120.441406 -14.632812 121.707031 -16.6875 122.09375 -19.03125 C 122.488281 -21.375 122.6875 -25.082031 122.6875 -30.15625 L 122.6875 -92.234375 C 122.6875 -101.210938 119.851562 -108.09375 114.1875 -112.875 C 108.53125 -117.65625 101.992188 -120.046875 94.578125 -120.046875 C 85.597656 -120.046875 77.882812 -117.847656 71.4375 -113.453125 C 65 -109.066406 60.609375 -104.53125 58.265625 -99.84375 L 58.265625 -30.15625 C 58.265625 -25.082031 58.457031 -21.375 58.84375 -19.03125 C 59.238281 -16.6875 60.507812 -14.632812 62.65625 -12.875 C 64.8125 -11.125 68.425781 -10.25 73.5 -10.25 L 75.25 -10.25 C 76.8125 -10.25 77.984375 -9.953125 78.765625 -9.359375 C 79.546875 -8.773438 80.035156 -7.316406 80.234375 -4.984375 C 80.234375 -3.421875 79.84375 -2.050781 79.0625 -0.875 C 78.28125 0.289062 77.109375 0.875 75.546875 0.875 C 64.222656 0.289062 53.972656 0 44.796875 0 C 36.015625 0 25.863281 0.289062 14.34375 0.875 Z M 14.34375 0.875 "/></g></g></g></g></g><path stroke-linecap="butt" transform="matrix(0.708432, -0.246218, 0.246218, 0.708432, 102.139119, 777.570921)" fill="none" stroke-linejoin="miter" d="M 5.65854 25.846633 C 41.154501 11.385649 79.841231 11.382861 121.710391 25.846398 " stroke="#121212" stroke-width="30" stroke-opacity="1" stroke-miterlimit="4"/><path stroke-linecap="butt" transform="matrix(0.75, 0, 0, 0.75, 194.066136, 754.660163)" fill="none" stroke-linejoin="miter" d="M 0.000360554 14.999992 L 109.588912 14.999992 " stroke="#121212" stroke-width="30" stroke-opacity="1" stroke-miterlimit="4"/><path stroke-linecap="butt" transform="matrix(0.653774, -0.367531, 0.367531, 0.653774, 146.65294, 860.30381)" fill="none" stroke-linejoin="miter" d="M 6.550682 28.467893 C 43.537328 10.513234 77.714894 10.511415 109.087921 28.464988 " stroke="#121212" stroke-width="30" stroke-opacity="1" stroke-miterlimit="4"/><path stroke-linecap="butt" transform="matrix(0.685486, -0.304317, 0.304317, 0.685486, 120.567606, 821.623085)" fill="none" stroke-linejoin="miter" d="M 5.427882 27.497319 C 48.366363 10.835616 88.678784 10.833036 126.363033 27.494341 " stroke="#121212" stroke-width="30" stroke-opacity="1" stroke-miterlimit="4"/><path stroke-linecap="butt" transform="matrix(0.75, 0, 0, 0.75, 215.116964, 790.768088)" fill="none" stroke-linejoin="miter" d="M 0.000298505 15.001926 L 178.901356 15.001926 " stroke="#121212" stroke-width="30" stroke-opacity="1" stroke-miterlimit="4"/><path stroke-linecap="butt" transform="matrix(-0.709244, 0.24387, -0.24387, -0.709244, 367.948742, 754.553051)" fill="none" stroke-linejoin="miter" d="M 5.657857 25.846214 C 41.158978 11.385199 79.839318 11.384351 121.713655 25.84875 " stroke="#121212" stroke-width="30" stroke-opacity="1" stroke-miterlimit="4"/><path stroke-linecap="butt" transform="matrix(-0.653774, 0.367531, -0.367531, -0.653774, 323.429185, 671.511834)" fill="none" stroke-linejoin="miter" d="M 6.551288 28.467068 C 43.537934 10.512409 77.715501 10.51059 109.088528 28.464163 " stroke="#121212" stroke-width="30" stroke-opacity="1" stroke-miterlimit="4"/><path stroke-linecap="butt" transform="matrix(-0.685486, 0.304317, -0.304317, -0.685486, 349.515706, 710.188575)" fill="none" stroke-linejoin="miter" d="M 5.425138 27.494875 C 48.368379 10.835285 88.6808 10.832706 126.365049 27.494011 " stroke="#121212" stroke-width="30" stroke-opacity="1" stroke-miterlimit="4"/><path stroke-linecap="butt" transform="matrix(-0.75, 0, 0, -0.75, 254.963975, 741.052308)" fill="none" stroke-linejoin="miter" d="M -0.00115781 15.002037 L 178.899899 15.002037 " stroke="#121212" stroke-width="30" stroke-opacity="1" stroke-miterlimit="4"/></svg>