<svg xmlns="http://www.w3.org/2000/svg" xmlns:xlink="http://www.w3.org/1999/xlink" width="1920" zoomAndPan="magnify" viewBox="0 0 1440 599.999999" height="800" preserveAspectRatio="xMidYMid meet" version="1.0"><defs><g/><clipPath id="639b1ccb11"><rect x="0" width="1018" y="0" height="358"/></clipPath><clipPath id="dcd7bf4062"><path d="M 123.261719 206.890625 L 218.746094 206.890625 L 218.746094 217.253906 L 123.261719 217.253906 Z M 123.261719 206.890625 " clip-rule="nonzero"/></clipPath><clipPath id="31aac238c6"><path d="M 128.441406 206.890625 L 213.535156 206.890625 C 216.398438 206.890625 218.714844 209.210938 218.714844 212.074219 C 218.714844 214.933594 216.398438 217.253906 213.535156 217.253906 L 128.441406 217.253906 C 125.582031 217.253906 123.261719 214.933594 123.261719 212.074219 C 123.261719 209.210938 125.582031 206.890625 128.441406 206.890625 Z M 128.441406 206.890625 " clip-rule="nonzero"/></clipPath><clipPath id="3f3ec5a34a"><path d="M 0.261719 0.890625 L 95.746094 0.890625 L 95.746094 11.253906 L 0.261719 11.253906 Z M 0.261719 0.890625 " clip-rule="nonzero"/></clipPath><clipPath id="762fba887e"><path d="M 5.441406 0.890625 L 90.535156 0.890625 C 93.398438 0.890625 95.714844 3.210938 95.714844 6.074219 C 95.714844 8.933594 93.398438 11.253906 90.535156 11.253906 L 5.441406 11.253906 C 2.582031 11.253906 0.261719 8.933594 0.261719 6.074219 C 0.261719 3.210938 2.582031 0.890625 5.441406 0.890625 Z M 5.441406 0.890625 " clip-rule="nonzero"/></clipPath><clipPath id="b9c83200f2"><rect x="0" width="96" y="0" height="12"/></clipPath><clipPath id="96a6b737eb"><path d="M 95.277344 225.511719 L 246.738281 225.511719 L 246.738281 235.875 L 95.277344 235.875 Z M 95.277344 225.511719 " clip-rule="nonzero"/></clipPath><clipPath id="b23ec1b8a5"><path d="M 100.457031 225.511719 L 241.519531 225.511719 C 244.382812 225.511719 246.699219 227.832031 246.699219 230.695312 C 246.699219 233.554688 244.382812 235.875 241.519531 235.875 L 100.457031 235.875 C 97.597656 235.875 95.277344 233.554688 95.277344 230.695312 C 95.277344 227.832031 97.597656 225.511719 100.457031 225.511719 Z M 100.457031 225.511719 " clip-rule="nonzero"/></clipPath><clipPath id="b4a993abc4"><path d="M 0.277344 0.511719 L 151.71875 0.511719 L 151.71875 10.875 L 0.277344 10.875 Z M 0.277344 0.511719 " clip-rule="nonzero"/></clipPath><clipPath id="b5b902019a"><path d="M 5.457031 0.511719 L 146.519531 0.511719 C 149.382812 0.511719 151.699219 2.832031 151.699219 5.695312 C 151.699219 8.554688 149.382812 10.875 146.519531 10.875 L 5.457031 10.875 C 2.597656 10.875 0.277344 8.554688 0.277344 5.695312 C 0.277344 2.832031 2.597656 0.511719 5.457031 0.511719 Z M 5.457031 0.511719 " clip-rule="nonzero"/></clipPath><clipPath id="b2d3da0727"><rect x="0" width="152" y="0" height="11"/></clipPath><clipPath id="99fd90e02e"><path d="M 74.765625 244.136719 L 289.734375 244.136719 L 289.734375 254.496094 L 74.765625 254.496094 Z M 74.765625 244.136719 " clip-rule="nonzero"/></clipPath><clipPath id="c04941e541"><path d="M 79.945312 244.136719 L 284.546875 244.136719 C 287.410156 244.136719 289.730469 246.453125 289.730469 249.316406 C 289.730469 252.175781 287.410156 254.496094 284.546875 254.496094 L 79.945312 254.496094 C 77.082031 254.496094 74.765625 252.175781 74.765625 249.316406 C 74.765625 246.453125 77.082031 244.136719 79.945312 244.136719 Z M 79.945312 244.136719 " clip-rule="nonzero"/></clipPath><clipPath id="22279940bf"><path d="M 0.765625 0.136719 L 215.734375 0.136719 L 215.734375 10.496094 L 0.765625 10.496094 Z M 0.765625 0.136719 " clip-rule="nonzero"/></clipPath><clipPath id="8c0887626f"><path d="M 5.945312 0.136719 L 210.546875 0.136719 C 213.410156 0.136719 215.730469 2.453125 215.730469 5.316406 C 215.730469 8.175781 213.410156 10.496094 210.546875 10.496094 L 5.945312 10.496094 C 3.082031 10.496094 0.765625 8.175781 0.765625 5.316406 C 0.765625 2.453125 3.082031 0.136719 5.945312 0.136719 Z M 5.945312 0.136719 " clip-rule="nonzero"/></clipPath><clipPath id="a6990a4c6f"><rect x="0" width="216" y="0" height="11"/></clipPath><clipPath id="a665cd539d"><path d="M 59.019531 262.757812 L 310.300781 262.757812 L 310.300781 273.117188 L 59.019531 273.117188 Z M 59.019531 262.757812 " clip-rule="nonzero"/></clipPath><clipPath id="97fe99781b"><path d="M 64.203125 262.757812 L 305.082031 262.757812 C 307.945312 262.757812 310.265625 265.078125 310.265625 267.9375 C 310.265625 270.800781 307.945312 273.117188 305.082031 273.117188 L 64.203125 273.117188 C 61.339844 273.117188 59.019531 270.800781 59.019531 267.9375 C 59.019531 265.078125 61.339844 262.757812 64.203125 262.757812 Z M 64.203125 262.757812 " clip-rule="nonzero"/></clipPath><clipPath id="40ea7094e3"><path d="M 0.0195312 0.757812 L 251.300781 0.757812 L 251.300781 11.117188 L 0.0195312 11.117188 Z M 0.0195312 0.757812 " clip-rule="nonzero"/></clipPath><clipPath id="9bae4e07c4"><path d="M 5.203125 0.757812 L 246.082031 0.757812 C 248.945312 0.757812 251.265625 3.078125 251.265625 5.9375 C 251.265625 8.800781 248.945312 11.117188 246.082031 11.117188 L 5.203125 11.117188 C 2.339844 11.117188 0.0195312 8.800781 0.0195312 5.9375 C 0.0195312 3.078125 2.339844 0.757812 5.203125 0.757812 Z M 5.203125 0.757812 " clip-rule="nonzero"/></clipPath><clipPath id="d3ba19ee94"><rect x="0" width="252" y="0" height="12"/></clipPath><clipPath id="284dbc2ac6"><path d="M 51.542969 281.378906 L 317.3125 281.378906 L 317.3125 291.742188 L 51.542969 291.742188 Z M 51.542969 281.378906 " clip-rule="nonzero"/></clipPath><clipPath id="ea99008823"><path d="M 56.726562 281.378906 L 312.117188 281.378906 C 314.980469 281.378906 317.300781 283.699219 317.300781 286.558594 C 317.300781 289.421875 314.980469 291.742188 312.117188 291.742188 L 56.726562 291.742188 C 53.863281 291.742188 51.542969 289.421875 51.542969 286.558594 C 51.542969 283.699219 53.863281 281.378906 56.726562 281.378906 Z M 56.726562 281.378906 " clip-rule="nonzero"/></clipPath><clipPath id="af74b344a0"><path d="M 0.542969 0.378906 L 266.3125 0.378906 L 266.3125 10.742188 L 0.542969 10.742188 Z M 0.542969 0.378906 " clip-rule="nonzero"/></clipPath><clipPath id="0e02a94472"><path d="M 5.726562 0.378906 L 261.117188 0.378906 C 263.980469 0.378906 266.300781 2.699219 266.300781 5.558594 C 266.300781 8.421875 263.980469 10.742188 261.117188 10.742188 L 5.726562 10.742188 C 2.863281 10.742188 0.542969 8.421875 0.542969 5.558594 C 0.542969 2.699219 2.863281 0.378906 5.726562 0.378906 Z M 5.726562 0.378906 " clip-rule="nonzero"/></clipPath><clipPath id="babc3cd2d7"><rect x="0" width="267" y="0" height="11"/></clipPath><clipPath id="7ff4e5c3ff"><path d="M 47.132812 300 L 196.933594 300 L 196.933594 310.363281 L 47.132812 310.363281 Z M 47.132812 300 " clip-rule="nonzero"/></clipPath><clipPath id="f0fe07578c"><path d="M 52.3125 300 L 191.738281 300 C 194.601562 300 196.917969 302.320312 196.917969 305.179688 C 196.917969 308.042969 194.601562 310.363281 191.738281 310.363281 L 52.3125 310.363281 C 49.449219 310.363281 47.132812 308.042969 47.132812 305.179688 C 47.132812 302.320312 49.449219 300 52.3125 300 Z M 52.3125 300 " clip-rule="nonzero"/></clipPath><clipPath id="d1f69ed727"><path d="M 0.132812 0 L 149.933594 0 L 149.933594 10.363281 L 0.132812 10.363281 Z M 0.132812 0 " clip-rule="nonzero"/></clipPath><clipPath id="28cb68da22"><path d="M 5.3125 0 L 144.738281 0 C 147.601562 0 149.917969 2.320312 149.917969 5.179688 C 149.917969 8.042969 147.601562 10.363281 144.738281 10.363281 L 5.3125 10.363281 C 2.449219 10.363281 0.132812 8.042969 0.132812 5.179688 C 0.132812 2.320312 2.449219 0 5.3125 0 Z M 5.3125 0 " clip-rule="nonzero"/></clipPath><clipPath id="0cb979c2ff"><rect x="0" width="150" y="0" height="11"/></clipPath><clipPath id="caf342f3ea"><path d="M 123.570312 411.726562 L 219.054688 411.726562 L 219.054688 422.089844 L 123.570312 422.089844 Z M 123.570312 411.726562 " clip-rule="nonzero"/></clipPath><clipPath id="ef140fb26f"><path d="M 213.875 422.089844 L 128.78125 422.089844 C 125.921875 422.089844 123.601562 419.769531 123.601562 416.910156 C 123.601562 414.046875 125.921875 411.726562 128.78125 411.726562 L 213.875 411.726562 C 216.738281 411.726562 219.054688 414.046875 219.054688 416.910156 C 219.054688 419.769531 216.738281 422.089844 213.875 422.089844 Z M 213.875 422.089844 " clip-rule="nonzero"/></clipPath><clipPath id="46edeb511b"><path d="M 0.601562 0.726562 L 96.054688 0.726562 L 96.054688 11.089844 L 0.601562 11.089844 Z M 0.601562 0.726562 " clip-rule="nonzero"/></clipPath><clipPath id="82c4b3d5a5"><path d="M 90.875 11.089844 L 5.78125 11.089844 C 2.921875 11.089844 0.601562 8.769531 0.601562 5.910156 C 0.601562 3.046875 2.921875 0.726562 5.78125 0.726562 L 90.875 0.726562 C 93.738281 0.726562 96.054688 3.046875 96.054688 5.910156 C 96.054688 8.769531 93.738281 11.089844 90.875 11.089844 Z M 90.875 11.089844 " clip-rule="nonzero"/></clipPath><clipPath id="86ca0fa30a"><rect x="0" width="97" y="0" height="12"/></clipPath><clipPath id="57f56baecc"><path d="M 95.253906 393.105469 L 256.796875 393.105469 L 256.796875 403.46875 L 95.253906 403.46875 Z M 95.253906 393.105469 " clip-rule="nonzero"/></clipPath><clipPath id="9e843fcf6d"><path d="M 251.613281 403.46875 L 100.453125 403.46875 C 97.59375 403.46875 95.273438 401.148438 95.273438 398.285156 C 95.273438 395.425781 97.59375 393.105469 100.453125 393.105469 L 251.613281 393.105469 C 254.476562 393.105469 256.796875 395.425781 256.796875 398.285156 C 256.796875 401.148438 254.476562 403.46875 251.613281 403.46875 Z M 251.613281 403.46875 " clip-rule="nonzero"/></clipPath><clipPath id="39298e7891"><path d="M 0.253906 0.105469 L 161.796875 0.105469 L 161.796875 10.46875 L 0.253906 10.46875 Z M 0.253906 0.105469 " clip-rule="nonzero"/></clipPath><clipPath id="0a8799d31d"><path d="M 156.613281 10.46875 L 5.453125 10.46875 C 2.59375 10.46875 0.273438 8.148438 0.273438 5.285156 C 0.273438 2.425781 2.59375 0.105469 5.453125 0.105469 L 156.613281 0.105469 C 159.476562 0.105469 161.796875 2.425781 161.796875 5.285156 C 161.796875 8.148438 159.476562 10.46875 156.613281 10.46875 Z M 156.613281 10.46875 " clip-rule="nonzero"/></clipPath><clipPath id="e439e0b3d4"><rect x="0" width="162" y="0" height="11"/></clipPath><clipPath id="1c2d3a00f7"><path d="M 76.925781 374.484375 L 305.777344 374.484375 L 305.777344 384.847656 L 76.925781 384.847656 Z M 76.925781 374.484375 " clip-rule="nonzero"/></clipPath><clipPath id="3c29d16bba"><path d="M 300.597656 384.847656 L 82.105469 384.847656 C 79.246094 384.847656 76.925781 382.527344 76.925781 379.664062 C 76.925781 376.804688 79.246094 374.484375 82.105469 374.484375 L 300.597656 374.484375 C 303.457031 374.484375 305.777344 376.804688 305.777344 379.664062 C 305.777344 382.527344 303.457031 384.847656 300.597656 384.847656 Z M 300.597656 384.847656 " clip-rule="nonzero"/></clipPath><clipPath id="83665e7c6f"><path d="M 0.925781 0.484375 L 229.777344 0.484375 L 229.777344 10.847656 L 0.925781 10.847656 Z M 0.925781 0.484375 " clip-rule="nonzero"/></clipPath><clipPath id="f8ec7f175d"><path d="M 224.597656 10.847656 L 6.105469 10.847656 C 3.246094 10.847656 0.925781 8.527344 0.925781 5.664062 C 0.925781 2.804688 3.246094 0.484375 6.105469 0.484375 L 224.597656 0.484375 C 227.457031 0.484375 229.777344 2.804688 229.777344 5.664062 C 229.777344 8.527344 227.457031 10.847656 224.597656 10.847656 Z M 224.597656 10.847656 " clip-rule="nonzero"/></clipPath><clipPath id="85a907e22e"><rect x="0" width="230" y="0" height="11"/></clipPath><clipPath id="6c3ac213cd"><path d="M 59.320312 355.863281 L 306.1875 355.863281 L 306.1875 366.222656 L 59.320312 366.222656 Z M 59.320312 355.863281 " clip-rule="nonzero"/></clipPath><clipPath id="12f01b55d5"><path d="M 301.007812 366.222656 L 64.539062 366.222656 C 61.679688 366.222656 59.359375 363.90625 59.359375 361.042969 C 59.359375 358.183594 61.679688 355.863281 64.539062 355.863281 L 301.007812 355.863281 C 303.867188 355.863281 306.1875 358.183594 306.1875 361.042969 C 306.1875 363.90625 303.867188 366.222656 301.007812 366.222656 Z M 301.007812 366.222656 " clip-rule="nonzero"/></clipPath><clipPath id="bd9c830897"><path d="M 0.320312 0.863281 L 247.1875 0.863281 L 247.1875 11.222656 L 0.320312 11.222656 Z M 0.320312 0.863281 " clip-rule="nonzero"/></clipPath><clipPath id="9423f59dbb"><path d="M 242.007812 11.222656 L 5.539062 11.222656 C 2.679688 11.222656 0.359375 8.90625 0.359375 6.042969 C 0.359375 3.183594 2.679688 0.863281 5.539062 0.863281 L 242.007812 0.863281 C 244.867188 0.863281 247.1875 3.183594 247.1875 6.042969 C 247.1875 8.90625 244.867188 11.222656 242.007812 11.222656 Z M 242.007812 11.222656 " clip-rule="nonzero"/></clipPath><clipPath id="776ce6ca92"><rect x="0" width="248" y="0" height="12"/></clipPath><clipPath id="a14376afda"><path d="M 51.191406 337.242188 L 246.574219 337.242188 L 246.574219 347.601562 L 51.191406 347.601562 Z M 51.191406 337.242188 " clip-rule="nonzero"/></clipPath><clipPath id="a42b58b76a"><path d="M 241.390625 347.601562 L 56.390625 347.601562 C 53.527344 347.601562 51.210938 345.28125 51.210938 342.421875 C 51.210938 339.558594 53.527344 337.242188 56.390625 337.242188 L 241.390625 337.242188 C 244.253906 337.242188 246.574219 339.558594 246.574219 342.421875 C 246.574219 345.28125 244.253906 347.601562 241.390625 347.601562 Z M 241.390625 347.601562 " clip-rule="nonzero"/></clipPath><clipPath id="d243123657"><path d="M 0.191406 0.242188 L 195.574219 0.242188 L 195.574219 10.601562 L 0.191406 10.601562 Z M 0.191406 0.242188 " clip-rule="nonzero"/></clipPath><clipPath id="9616d20576"><path d="M 190.390625 10.601562 L 5.390625 10.601562 C 2.527344 10.601562 0.210938 8.28125 0.210938 5.421875 C 0.210938 2.558594 2.527344 0.242188 5.390625 0.242188 L 190.390625 0.242188 C 193.253906 0.242188 195.574219 2.558594 195.574219 5.421875 C 195.574219 8.28125 193.253906 10.601562 190.390625 10.601562 Z M 190.390625 10.601562 " clip-rule="nonzero"/></clipPath><clipPath id="70b955ae67"><rect x="0" width="196" y="0" height="11"/></clipPath><clipPath id="9c03691582"><path d="M 47.425781 318.617188 L 306.191406 318.617188 L 306.191406 328.980469 L 47.425781 328.980469 Z M 47.425781 318.617188 " clip-rule="nonzero"/></clipPath><clipPath id="6cbecc1ceb"><path d="M 301.011719 328.980469 L 52.640625 328.980469 C 49.78125 328.980469 47.460938 326.660156 47.460938 323.800781 C 47.460938 320.9375 49.78125 318.617188 52.640625 318.617188 L 301.011719 318.617188 C 303.871094 318.617188 306.191406 320.9375 306.191406 323.800781 C 306.191406 326.660156 303.871094 328.980469 301.011719 328.980469 Z M 301.011719 328.980469 " clip-rule="nonzero"/></clipPath><clipPath id="6d9fa80c11"><path d="M 0.425781 0.617188 L 259.191406 0.617188 L 259.191406 10.980469 L 0.425781 10.980469 Z M 0.425781 0.617188 " clip-rule="nonzero"/></clipPath><clipPath id="acecb1bdfb"><path d="M 254.011719 10.980469 L 5.640625 10.980469 C 2.78125 10.980469 0.460938 8.660156 0.460938 5.800781 C 0.460938 2.9375 2.78125 0.617188 5.640625 0.617188 L 254.011719 0.617188 C 256.871094 0.617188 259.191406 2.9375 259.191406 5.800781 C 259.191406 8.660156 256.871094 10.980469 254.011719 10.980469 Z M 254.011719 10.980469 " clip-rule="nonzero"/></clipPath><clipPath id="327ec1ab96"><rect x="0" width="260" y="0" height="11"/></clipPath></defs><g transform="matrix(1, 0, 0, 1, 356, 121)"><g clip-path="url(#639b1ccb11)"><g fill="#1b1a20" fill-opacity="1"><g transform="translate(0.262437, 284.060559)"><g><path d="M 19.015625 0.9375 C 17.140625 0.9375 15.734375 0.265625 14.796875 -1.078125 C 13.867188 -2.429688 13.40625 -4.046875 13.40625 -5.921875 C 13.613281 -9.035156 14.234375 -10.90625 15.265625 -11.53125 C 16.304688 -12.15625 18.285156 -12.46875 21.203125 -12.46875 C 27.222656 -12.46875 31.6875 -13.554688 34.59375 -15.734375 C 37.507812 -17.921875 39.328125 -20.625 40.046875 -23.84375 C 40.773438 -27.0625 41.242188 -31.269531 41.453125 -36.46875 L 41.453125 -159.90625 C 41.242188 -165.3125 40.773438 -169.570312 40.046875 -172.6875 C 39.328125 -175.8125 37.507812 -178.515625 34.59375 -180.796875 C 31.6875 -183.078125 27.222656 -184.21875 21.203125 -184.21875 L 19.328125 -184.21875 C 17.242188 -184.21875 15.785156 -184.582031 14.953125 -185.3125 C 14.128906 -186.039062 13.613281 -187.859375 13.40625 -190.765625 C 13.40625 -192.640625 13.867188 -194.25 14.796875 -195.59375 C 15.734375 -196.945312 17.140625 -197.625 19.015625 -197.625 C 32.523438 -197 44.890625 -196.6875 56.109375 -196.6875 L 109.71875 -196.6875 C 125.726562 -196.476562 139.082031 -193.929688 149.78125 -189.046875 C 160.476562 -184.171875 168.320312 -177.9375 173.3125 -170.34375 C 178.300781 -162.757812 180.796875 -154.609375 180.796875 -145.890625 C 180.796875 -134.453125 176.273438 -123.953125 167.234375 -114.390625 C 158.191406 -104.835938 145.878906 -97.984375 130.296875 -93.828125 L 135.59375 -85.40625 C 144.320312 -71.28125 152.21875 -59.175781 159.28125 -49.09375 C 166.351562 -39.019531 174.046875 -29.617188 182.359375 -20.890625 C 188.171875 -16.109375 194.40625 -13.300781 201.0625 -12.46875 C 201.476562 -12.46875 202.410156 -12.414062 203.859375 -12.3125 C 205.316406 -12.207031 206.507812 -11.632812 207.4375 -10.59375 C 208.375 -9.5625 208.84375 -8.003906 208.84375 -5.921875 C 208.84375 -4.046875 208.375 -2.429688 207.4375 -1.078125 C 206.507812 0.265625 205.109375 0.9375 203.234375 0.9375 L 195.140625 0.625 C 185.992188 0.207031 179.34375 0 175.1875 0 C 166.875 -1.664062 159.753906 -4.628906 153.828125 -8.890625 C 147.910156 -13.148438 142.039062 -19.226562 136.21875 -27.125 C 130.195312 -35.019531 121.78125 -47.898438 110.96875 -65.765625 L 105.359375 -74.8125 C 102.242188 -79.59375 99.226562 -82.863281 96.3125 -84.625 C 93.40625 -86.394531 88.421875 -87.28125 81.359375 -87.28125 L 72.3125 -87.28125 L 72.3125 -36.46875 C 72.519531 -31.269531 72.988281 -27.0625 73.71875 -23.84375 C 74.445312 -20.625 76.265625 -17.921875 79.171875 -15.734375 C 82.085938 -13.554688 86.554688 -12.46875 92.578125 -12.46875 L 94.453125 -12.46875 C 96.316406 -12.46875 97.71875 -12.101562 98.65625 -11.375 C 99.59375 -10.644531 100.164062 -8.828125 100.375 -5.921875 C 100.375 -4.046875 99.90625 -2.429688 98.96875 -1.078125 C 98.03125 0.265625 96.628906 0.9375 94.765625 0.9375 C 81.460938 0.3125 68.472656 0 55.796875 0 C 44.785156 0 32.523438 0.3125 19.015625 0.9375 Z M 99.75 -99.4375 C 130.71875 -99.4375 146.203125 -113.984375 146.203125 -143.078125 C 146.203125 -154.921875 142.144531 -164.894531 134.03125 -173 C 125.925781 -181.101562 112.628906 -185.15625 94.140625 -185.15625 C 88.109375 -185.15625 83.535156 -184.425781 80.421875 -182.96875 C 77.304688 -181.519531 75.175781 -179.03125 74.03125 -175.5 C 72.882812 -171.96875 72.3125 -166.5625 72.3125 -159.28125 L 72.3125 -99.4375 Z M 99.75 -99.4375 "/></g></g></g><g fill="#1b1a20" fill-opacity="1"><g transform="translate(184.483474, 284.060559)"><g><path d="M 74.8125 3.734375 C 60.675781 3.734375 49.453125 -0.519531 41.140625 -9.03125 C 32.828125 -17.550781 28.671875 -28.773438 28.671875 -42.703125 L 28.671875 -100.375 C 28.671875 -105.78125 28.515625 -109.726562 28.203125 -112.21875 C 27.898438 -114.707031 26.601562 -116.882812 24.3125 -118.75 C 22.03125 -120.625 18.1875 -121.5625 12.78125 -121.5625 C 10.289062 -121.5625 8.421875 -121.925781 7.171875 -122.65625 C 5.921875 -123.382812 5.296875 -125.097656 5.296875 -127.796875 C 5.296875 -129.046875 5.710938 -130.242188 6.546875 -131.390625 C 7.378906 -132.535156 8.625 -133.210938 10.28125 -133.421875 C 23.375 -135.285156 34.597656 -137.984375 43.953125 -141.515625 C 46.859375 -142.554688 49.25 -143.179688 51.125 -143.390625 L 52.0625 -143.390625 C 55.382812 -143.390625 57.046875 -141.414062 57.046875 -137.46875 L 57.046875 -43.015625 C 57.046875 -33.453125 60.054688 -26.125 66.078125 -21.03125 C 72.109375 -15.945312 79.070312 -13.40625 86.96875 -13.40625 C 96.738281 -13.40625 105.050781 -15.796875 111.90625 -20.578125 C 118.757812 -25.359375 123.332031 -30.132812 125.625 -34.90625 L 125.625 -100.375 C 125.625 -105.78125 125.46875 -109.726562 125.15625 -112.21875 C 124.84375 -114.707031 123.539062 -116.882812 121.25 -118.75 C 118.96875 -120.625 115.125 -121.5625 109.71875 -121.5625 C 107.226562 -121.5625 105.359375 -121.925781 104.109375 -122.65625 C 102.867188 -123.382812 102.25 -125.097656 102.25 -127.796875 C 102.25 -129.046875 102.660156 -130.242188 103.484375 -131.390625 C 104.316406 -132.535156 105.566406 -133.210938 107.234375 -133.421875 C 120.328125 -135.285156 131.546875 -137.984375 140.890625 -141.515625 C 143.804688 -142.554688 146.195312 -143.179688 148.0625 -143.390625 L 149 -143.390625 C 152.320312 -143.390625 153.984375 -141.414062 153.984375 -137.46875 L 153.984375 -29.609375 C 153.984375 -17.347656 162.191406 -11.21875 178.609375 -11.21875 C 182.140625 -11.21875 183.90625 -9.242188 183.90625 -5.296875 C 183.90625 -2.390625 182.140625 -0.625 178.609375 0 L 128.421875 3.421875 C 126.972656 3.421875 126.144531 2.953125 125.9375 2.015625 C 125.726562 1.085938 125.625 -0.519531 125.625 -2.8125 L 125.625 -20.265625 L 125 -20.265625 C 118.96875 -14.648438 114.082031 -10.335938 110.34375 -7.328125 C 106.601562 -4.316406 101.769531 -1.722656 95.84375 0.453125 C 89.925781 2.640625 82.914062 3.734375 74.8125 3.734375 Z M 74.8125 3.734375 "/></g></g></g><g fill="#1b1a20" fill-opacity="1"><g transform="translate(345.326161, 284.060559)"><g><path d="M 30.234375 4.359375 C 28.367188 4.359375 26.914062 3.785156 25.875 2.640625 C 24.832031 1.503906 24.3125 0 24.3125 -1.875 L 24.3125 -183.90625 C 24.3125 -189.3125 24.15625 -193.257812 23.84375 -195.75 C 23.53125 -198.25 22.226562 -200.429688 19.9375 -202.296875 C 17.65625 -204.171875 13.816406 -205.109375 8.421875 -205.109375 C 5.921875 -205.109375 4.046875 -205.472656 2.796875 -206.203125 C 1.554688 -206.929688 0.9375 -208.644531 0.9375 -211.34375 C 0.9375 -212.59375 1.347656 -213.785156 2.171875 -214.921875 C 3.003906 -216.066406 4.253906 -216.742188 5.921875 -216.953125 C 19.015625 -218.828125 30.238281 -221.53125 39.59375 -225.0625 C 42.5 -226.101562 44.882812 -226.726562 46.75 -226.9375 L 47.6875 -226.9375 C 51.019531 -226.9375 52.6875 -224.960938 52.6875 -221.015625 L 52.6875 -126.875 L 53.609375 -126.875 C 59.640625 -132.894531 66.445312 -137.410156 74.03125 -140.421875 C 81.613281 -143.441406 89.144531 -144.953125 96.625 -144.953125 C 108.894531 -144.953125 120.015625 -141.832031 129.984375 -135.59375 C 139.960938 -129.363281 147.804688 -120.6875 153.515625 -109.5625 C 159.234375 -98.445312 162.09375 -85.820312 162.09375 -71.6875 C 162.09375 -57.769531 158.816406 -45.039062 152.265625 -33.5 C 145.722656 -21.96875 136.941406 -12.878906 125.921875 -6.234375 C 114.910156 0.410156 103.171875 3.734375 90.703125 3.734375 C 72.210938 3.734375 56.210938 -1.351562 42.703125 -11.53125 L 41.140625 -11.53125 C 40.316406 -9.875 39.382812 -7.585938 38.34375 -4.671875 C 37.300781 -1.765625 36.15625 0.460938 34.90625 2.015625 C 33.664062 3.578125 32.109375 4.359375 30.234375 4.359375 Z M 87.90625 -6.859375 C 100.582031 -6.859375 110.816406 -12.625 118.609375 -24.15625 C 126.398438 -35.6875 130.296875 -51.117188 130.296875 -70.453125 C 130.296875 -86.660156 126.554688 -100.53125 119.078125 -112.0625 C 111.597656 -123.59375 100.476562 -129.359375 85.71875 -129.359375 C 72.625 -129.359375 61.613281 -124.582031 52.6875 -115.03125 L 52.6875 -32.734375 C 53.300781 -29.410156 55.113281 -25.71875 58.125 -21.65625 C 61.144531 -17.601562 65.195312 -14.125 70.28125 -11.21875 C 75.375 -8.3125 81.25 -6.859375 87.90625 -6.859375 Z M 87.90625 -6.859375 "/></g></g></g><g fill="#1b1a20" fill-opacity="1"><g transform="translate(495.258954, 284.060559)"><g><path d="M 15.28125 0.9375 C 13.820312 0.9375 12.625 0.3125 11.6875 -0.9375 C 10.75 -2.1875 10.28125 -3.640625 10.28125 -5.296875 C 10.488281 -7.992188 11.113281 -9.601562 12.15625 -10.125 C 13.195312 -10.644531 15.066406 -10.90625 17.765625 -10.90625 C 23.171875 -10.90625 27.015625 -11.835938 29.296875 -13.703125 C 31.585938 -15.578125 32.890625 -17.757812 33.203125 -20.25 C 33.515625 -22.75 33.671875 -26.703125 33.671875 -32.109375 L 33.671875 -103.484375 C 33.671875 -108.890625 33.515625 -112.835938 33.203125 -115.328125 C 32.890625 -117.828125 31.585938 -120.007812 29.296875 -121.875 C 27.015625 -123.75 23.171875 -124.6875 17.765625 -124.6875 C 15.273438 -124.6875 13.40625 -125.050781 12.15625 -125.78125 C 10.90625 -126.507812 10.28125 -128.222656 10.28125 -130.921875 C 10.28125 -132.171875 10.695312 -133.363281 11.53125 -134.5 C 12.363281 -135.644531 13.613281 -136.320312 15.28125 -136.53125 C 28.363281 -138.40625 39.582031 -141.109375 48.9375 -144.640625 C 51.84375 -145.679688 54.234375 -146.300781 56.109375 -146.5 L 57.046875 -146.5 C 60.367188 -146.5 62.03125 -144.523438 62.03125 -140.578125 L 62.03125 -32.109375 C 62.03125 -26.703125 62.238281 -22.75 62.65625 -20.25 C 63.070312 -17.757812 64.421875 -15.578125 66.703125 -13.703125 C 68.992188 -11.835938 72.835938 -10.90625 78.234375 -10.90625 L 80.109375 -10.90625 C 81.773438 -10.90625 83.019531 -10.59375 83.84375 -9.96875 C 84.675781 -9.351562 85.195312 -7.796875 85.40625 -5.296875 C 85.40625 -3.640625 84.988281 -2.1875 84.15625 -0.9375 C 83.332031 0.3125 82.085938 0.9375 80.421875 0.9375 C 68.367188 0.3125 57.457031 0 47.6875 0 C 38.34375 0 27.539062 0.3125 15.28125 0.9375 Z M 46.140625 -181.109375 C 40.316406 -181.109375 35.429688 -182.925781 31.484375 -186.5625 C 27.535156 -190.195312 25.5625 -194.71875 25.5625 -200.125 C 25.5625 -204.90625 27.953125 -209.164062 32.734375 -212.90625 C 37.515625 -216.644531 42.914062 -218.515625 48.9375 -218.515625 C 54.132812 -218.515625 58.394531 -216.695312 61.71875 -213.0625 C 65.050781 -209.425781 66.71875 -204.800781 66.71875 -199.1875 C 66.71875 -194.195312 64.738281 -189.9375 60.78125 -186.40625 C 56.832031 -182.875 51.953125 -181.109375 46.140625 -181.109375 Z M 46.140625 -181.109375 "/></g></g></g><g fill="#1b1a20" fill-opacity="1"><g transform="translate(562.588124, 284.060559)"><g><path d="M 80.734375 3.734375 C 59.535156 3.734375 42.910156 -3.015625 30.859375 -16.515625 C 18.804688 -30.023438 12.78125 -48.109375 12.78125 -70.765625 C 13.195312 -84.890625 16.675781 -97.507812 23.21875 -108.625 C 29.769531 -119.75 38.550781 -128.476562 49.5625 -134.8125 C 60.570312 -141.15625 72.726562 -144.535156 86.03125 -144.953125 C 99.332031 -144.953125 110.8125 -142.457031 120.46875 -137.46875 C 130.132812 -132.476562 134.96875 -124.164062 134.96875 -112.53125 C 134.96875 -106.082031 133.046875 -100.414062 129.203125 -95.53125 C 125.359375 -90.65625 120.21875 -88.21875 113.78125 -88.21875 C 109.832031 -88.21875 106.453125 -89.253906 103.640625 -91.328125 C 100.835938 -93.410156 99.4375 -95.175781 99.4375 -96.625 C 99.4375 -96.832031 100.367188 -97.769531 102.234375 -99.4375 C 104.109375 -101.101562 105.820312 -103.128906 107.375 -105.515625 C 108.9375 -107.898438 109.71875 -110.65625 109.71875 -113.78125 C 109.71875 -120.21875 107.378906 -125.097656 102.703125 -128.421875 C 98.035156 -131.753906 92.375 -133.421875 85.71875 -133.421875 C 69.71875 -133.421875 58.859375 -127.546875 53.140625 -115.796875 C 47.429688 -104.054688 44.578125 -89.351562 44.578125 -71.6875 C 44.578125 -54.238281 48.523438 -39.898438 56.421875 -28.671875 C 64.316406 -17.453125 74.8125 -11.84375 87.90625 -11.84375 C 96.84375 -11.84375 104.476562 -13.765625 110.8125 -17.609375 C 117.15625 -21.453125 122.921875 -27.320312 128.109375 -35.21875 C 128.734375 -36.257812 129.773438 -36.78125 131.234375 -36.78125 C 132.273438 -36.78125 133.414062 -36.46875 134.65625 -35.84375 C 135.695312 -35.425781 136.53125 -34.695312 137.15625 -33.65625 C 137.78125 -32.625 138.09375 -31.585938 138.09375 -30.546875 C 138.09375 -29.921875 137.78125 -29.085938 137.15625 -28.046875 C 130.300781 -18.285156 121.78125 -10.546875 111.59375 -4.828125 C 101.414062 0.878906 91.128906 3.734375 80.734375 3.734375 Z M 80.734375 3.734375 "/></g></g></g><g fill="#1b1a20" fill-opacity="1"><g transform="translate(685.713662, 284.060559)"><g><path d="M 85.40625 3.734375 C 71.28125 3.734375 58.707031 0.359375 47.6875 -6.390625 C 36.675781 -13.140625 28.101562 -22.070312 21.96875 -33.1875 C 15.84375 -44.3125 12.78125 -56.109375 12.78125 -68.578125 C 12.78125 -84.160156 16.414062 -97.71875 23.6875 -109.25 C 30.957031 -120.789062 40.203125 -129.625 51.421875 -135.75 C 62.648438 -141.882812 73.976562 -144.953125 85.40625 -144.953125 C 99.539062 -144.953125 112.113281 -141.570312 123.125 -134.8125 C 134.144531 -128.0625 142.71875 -119.125 148.84375 -108 C 154.976562 -96.882812 158.046875 -85.09375 158.046875 -72.625 C 158.046875 -57.039062 154.351562 -43.484375 146.96875 -31.953125 C 139.59375 -20.421875 130.296875 -11.585938 119.078125 -5.453125 C 107.859375 0.671875 96.632812 3.734375 85.40625 3.734375 Z M 85.40625 -7.796875 C 99.539062 -7.796875 109.878906 -13.820312 116.421875 -25.875 C 122.972656 -37.925781 126.25 -53.507812 126.25 -72.625 C 126.25 -90.5 122.867188 -105.097656 116.109375 -116.421875 C 109.359375 -127.753906 99.125 -133.421875 85.40625 -133.421875 C 71.070312 -133.421875 60.679688 -127.492188 54.234375 -115.640625 C 47.796875 -103.796875 44.578125 -88.316406 44.578125 -69.203125 C 44.578125 -51.328125 47.898438 -36.625 54.546875 -25.09375 C 61.203125 -13.5625 71.488281 -7.796875 85.40625 -7.796875 Z M 85.40625 -7.796875 "/></g></g></g><g fill="#1b1a20" fill-opacity="1"><g transform="translate(831.594179, 284.060559)"><g><path d="M 15.28125 0.9375 C 13.820312 0.9375 12.625 0.3125 11.6875 -0.9375 C 10.75 -2.1875 10.28125 -3.640625 10.28125 -5.296875 C 10.488281 -7.992188 11.113281 -9.601562 12.15625 -10.125 C 13.195312 -10.644531 15.066406 -10.90625 17.765625 -10.90625 C 23.171875 -10.90625 27.015625 -11.835938 29.296875 -13.703125 C 31.585938 -15.578125 32.890625 -17.757812 33.203125 -20.25 C 33.515625 -22.75 33.671875 -26.703125 33.671875 -32.109375 L 33.671875 -103.484375 C 33.671875 -108.890625 33.515625 -112.835938 33.203125 -115.328125 C 32.890625 -117.828125 31.585938 -120.007812 29.296875 -121.875 C 27.015625 -123.75 23.171875 -124.6875 17.765625 -124.6875 C 15.273438 -124.6875 13.40625 -125.050781 12.15625 -125.78125 C 10.90625 -126.507812 10.28125 -128.222656 10.28125 -130.921875 C 10.28125 -132.171875 10.695312 -133.363281 11.53125 -134.5 C 12.363281 -135.644531 13.613281 -136.320312 15.28125 -136.53125 C 28.78125 -138.613281 39.894531 -141.316406 48.625 -144.640625 C 52.15625 -145.679688 54.546875 -146.300781 55.796875 -146.5 L 56.734375 -146.5 C 60.054688 -146.5 61.71875 -144.523438 61.71875 -140.578125 L 61.71875 -120.953125 L 62.65625 -120.953125 C 68.675781 -126.554688 73.554688 -130.863281 77.296875 -133.875 C 81.046875 -136.894531 85.878906 -139.492188 91.796875 -141.671875 C 97.722656 -143.859375 104.738281 -144.953125 112.84375 -144.953125 C 126.96875 -144.953125 138.1875 -140.691406 146.5 -132.171875 C 154.8125 -123.648438 158.96875 -112.425781 158.96875 -98.5 L 158.96875 -32.109375 C 158.96875 -26.703125 159.175781 -22.75 159.59375 -20.25 C 160.007812 -17.757812 161.359375 -15.578125 163.640625 -13.703125 C 165.929688 -11.835938 169.78125 -10.90625 175.1875 -10.90625 L 177.0625 -10.90625 C 178.71875 -10.90625 179.960938 -10.59375 180.796875 -9.96875 C 181.628906 -9.351562 182.148438 -7.796875 182.359375 -5.296875 C 182.359375 -3.640625 181.890625 -2.1875 180.953125 -0.9375 C 180.015625 0.3125 178.820312 0.9375 177.375 0.9375 C 165.3125 0.3125 154.398438 0 144.640625 0 C 135.285156 0 124.476562 0.3125 112.21875 0.9375 C 110.757812 0.9375 109.5625 0.3125 108.625 -0.9375 C 107.695312 -2.1875 107.234375 -3.640625 107.234375 -5.296875 C 107.441406 -7.992188 108.007812 -9.601562 108.9375 -10.125 C 109.875 -10.644531 111.695312 -10.90625 114.40625 -10.90625 C 119.800781 -10.90625 123.640625 -11.835938 125.921875 -13.703125 C 128.210938 -15.578125 129.566406 -17.757812 129.984375 -20.25 C 130.398438 -22.75 130.609375 -26.703125 130.609375 -32.109375 L 130.609375 -98.1875 C 130.609375 -107.75 127.59375 -115.070312 121.5625 -120.15625 C 115.539062 -125.25 108.582031 -127.796875 100.6875 -127.796875 C 91.125 -127.796875 82.910156 -125.457031 76.046875 -120.78125 C 69.191406 -116.113281 64.519531 -111.285156 62.03125 -106.296875 L 62.03125 -32.109375 C 62.03125 -26.703125 62.238281 -22.75 62.65625 -20.25 C 63.070312 -17.757812 64.421875 -15.578125 66.703125 -13.703125 C 68.992188 -11.835938 72.835938 -10.90625 78.234375 -10.90625 L 80.109375 -10.90625 C 81.773438 -10.90625 83.019531 -10.59375 83.84375 -9.96875 C 84.675781 -9.351562 85.195312 -7.796875 85.40625 -5.296875 C 85.40625 -3.640625 84.988281 -2.1875 84.15625 -0.9375 C 83.332031 0.3125 82.085938 0.9375 80.421875 0.9375 C 68.367188 0.3125 57.457031 0 47.6875 0 C 38.34375 0 27.539062 0.3125 15.28125 0.9375 Z M 15.28125 0.9375 "/></g></g></g></g></g><g clip-path="url(#dcd7bf4062)"><g clip-path="url(#31aac238c6)"><g transform="matrix(1, 0, 0, 1, 123, 206)"><g clip-path="url(#b9c83200f2)"><g clip-path="url(#3f3ec5a34a)"><g clip-path="url(#762fba887e)"><path fill="#1b1a20" d="M 0.261719 0.890625 L 95.703125 0.890625 L 95.703125 11.253906 L 0.261719 11.253906 Z M 0.261719 0.890625 " fill-opacity="1" fill-rule="nonzero"/></g></g></g></g></g></g><g clip-path="url(#96a6b737eb)"><g clip-path="url(#b23ec1b8a5)"><g transform="matrix(1, 0, 0, 1, 95, 225)"><g clip-path="url(#b2d3da0727)"><g clip-path="url(#b4a993abc4)"><g clip-path="url(#b5b902019a)"><path fill="#1b1a20" d="M 0.277344 0.511719 L 151.699219 0.511719 L 151.699219 10.875 L 0.277344 10.875 Z M 0.277344 0.511719 " fill-opacity="1" fill-rule="nonzero"/></g></g></g></g></g></g><g clip-path="url(#99fd90e02e)"><g clip-path="url(#c04941e541)"><g transform="matrix(1, 0, 0, 1, 74, 244)"><g clip-path="url(#a6990a4c6f)"><g clip-path="url(#22279940bf)"><g clip-path="url(#8c0887626f)"><path fill="#1b1a20" d="M 0.765625 0.136719 L 215.734375 0.136719 L 215.734375 10.496094 L 0.765625 10.496094 Z M 0.765625 0.136719 " fill-opacity="1" fill-rule="nonzero"/></g></g></g></g></g></g><g clip-path="url(#a665cd539d)"><g clip-path="url(#97fe99781b)"><g transform="matrix(1, 0, 0, 1, 59, 262)"><g clip-path="url(#d3ba19ee94)"><g clip-path="url(#40ea7094e3)"><g clip-path="url(#9bae4e07c4)"><path fill="#1b1a20" d="M 0.0195312 0.757812 L 251.257812 0.757812 L 251.257812 11.117188 L 0.0195312 11.117188 Z M 0.0195312 0.757812 " fill-opacity="1" fill-rule="nonzero"/></g></g></g></g></g></g><g clip-path="url(#284dbc2ac6)"><g clip-path="url(#ea99008823)"><g transform="matrix(1, 0, 0, 1, 51, 281)"><g clip-path="url(#babc3cd2d7)"><g clip-path="url(#af74b344a0)"><g clip-path="url(#0e02a94472)"><path fill="#1b1a20" d="M 0.542969 0.378906 L 266.3125 0.378906 L 266.3125 10.742188 L 0.542969 10.742188 Z M 0.542969 0.378906 " fill-opacity="1" fill-rule="nonzero"/></g></g></g></g></g></g><g clip-path="url(#7ff4e5c3ff)"><g clip-path="url(#f0fe07578c)"><g transform="matrix(1, 0, 0, 1, 47, 300)"><g clip-path="url(#0cb979c2ff)"><g clip-path="url(#d1f69ed727)"><g clip-path="url(#28cb68da22)"><path fill="#1b1a20" d="M 0.132812 0 L 149.933594 0 L 149.933594 10.363281 L 0.132812 10.363281 Z M 0.132812 0 " fill-opacity="1" fill-rule="nonzero"/></g></g></g></g></g></g><g clip-path="url(#caf342f3ea)"><g clip-path="url(#ef140fb26f)"><g transform="matrix(1, 0, 0, 1, 123, 411)"><g clip-path="url(#86ca0fa30a)"><g clip-path="url(#46edeb511b)"><g clip-path="url(#82c4b3d5a5)"><path fill="#1b1a20" d="M 96.054688 11.089844 L 0.613281 11.089844 L 0.613281 0.726562 L 96.054688 0.726562 Z M 96.054688 11.089844 " fill-opacity="1" fill-rule="nonzero"/></g></g></g></g></g></g><g clip-path="url(#57f56baecc)"><g clip-path="url(#9e843fcf6d)"><g transform="matrix(1, 0, 0, 1, 95, 393)"><g clip-path="url(#e439e0b3d4)"><g clip-path="url(#39298e7891)"><g clip-path="url(#0a8799d31d)"><path fill="#1b1a20" d="M 161.796875 10.46875 L 0.253906 10.46875 L 0.253906 0.105469 L 161.796875 0.105469 Z M 161.796875 10.46875 " fill-opacity="1" fill-rule="nonzero"/></g></g></g></g></g></g><g clip-path="url(#1c2d3a00f7)"><g clip-path="url(#3c29d16bba)"><g transform="matrix(1, 0, 0, 1, 76, 374)"><g clip-path="url(#85a907e22e)"><g clip-path="url(#83665e7c6f)"><g clip-path="url(#f8ec7f175d)"><path fill="#1b1a20" d="M 229.777344 10.847656 L 0.925781 10.847656 L 0.925781 0.484375 L 229.777344 0.484375 Z M 229.777344 10.847656 " fill-opacity="1" fill-rule="nonzero"/></g></g></g></g></g></g><g clip-path="url(#6c3ac213cd)"><g clip-path="url(#12f01b55d5)"><g transform="matrix(1, 0, 0, 1, 59, 355)"><g clip-path="url(#776ce6ca92)"><g clip-path="url(#bd9c830897)"><g clip-path="url(#9423f59dbb)"><path fill="#1b1a20" d="M 247.1875 11.222656 L 0.363281 11.222656 L 0.363281 0.863281 L 247.1875 0.863281 Z M 247.1875 11.222656 " fill-opacity="1" fill-rule="nonzero"/></g></g></g></g></g></g><g clip-path="url(#a14376afda)"><g clip-path="url(#a42b58b76a)"><g transform="matrix(1, 0, 0, 1, 51, 337)"><g clip-path="url(#70b955ae67)"><g clip-path="url(#d243123657)"><g clip-path="url(#9616d20576)"><path fill="#1b1a20" d="M 195.574219 10.601562 L 0.191406 10.601562 L 0.191406 0.242188 L 195.574219 0.242188 Z M 195.574219 10.601562 " fill-opacity="1" fill-rule="nonzero"/></g></g></g></g></g></g><g clip-path="url(#9c03691582)"><g clip-path="url(#6cbecc1ceb)"><g transform="matrix(1, 0, 0, 1, 47, 318)"><g clip-path="url(#327ec1ab96)"><g clip-path="url(#6d9fa80c11)"><g clip-path="url(#acecb1bdfb)"><path fill="#1b1a20" d="M 259.191406 10.980469 L 0.464844 10.980469 L 0.464844 0.617188 L 259.191406 0.617188 Z M 259.191406 10.980469 " fill-opacity="1" fill-rule="nonzero"/></g></g></g></g></g></g></svg>