<svg xmlns="http://www.w3.org/2000/svg" xmlns:xlink="http://www.w3.org/1999/xlink" width="2000" zoomAndPan="magnify" viewBox="0 0 1500 1499.999933" height="2000" preserveAspectRatio="xMidYMid meet" version="1.0"><path stroke-linecap="butt" transform="matrix(0.708432, -0.246218, 0.246218, 0.708432, 295.065565, 791.33312)" fill="none" stroke-linejoin="miter" d="M 18.865434 87.190976 C 140.566419 37.604348 273.193592 37.602858 416.75187 87.188218 " stroke="#121212" stroke-width="100" stroke-opacity="1" stroke-miterlimit="4"/><path stroke-linecap="butt" transform="matrix(0.75, 0.000000000000000227, -0.000000000000000227, 0.75, 609.505877, 712.977111)" fill="none" stroke-linejoin="miter" d="M 0.00258087 49.999274 L 375.726572 49.999274 " stroke="#121212" stroke-width="100" stroke-opacity="1" stroke-miterlimit="4"/><path stroke-linecap="butt" transform="matrix(0.653774, -0.367531, 0.367531, 0.653774, 447.880723, 1074.813631)" fill="none" stroke-linejoin="miter" d="M 21.834711 96.166894 C 148.642787 34.613898 265.82488 34.610417 373.392058 96.168647 " stroke="#121212" stroke-width="100" stroke-opacity="1" stroke-miterlimit="4"/><path stroke-linecap="butt" transform="matrix(0.685486, -0.304317, 0.304317, 0.685486, 358.300843, 942.313963)" fill="none" stroke-linejoin="miter" d="M 18.086794 92.844043 C 165.309806 35.718956 303.520653 35.720917 432.72145 92.845166 " stroke="#121212" stroke-width="100" stroke-opacity="1" stroke-miterlimit="4"/><path stroke-linecap="butt" transform="matrix(0.75, 0, 0, 0.75, 681.678311, 836.772556)" fill="none" stroke-linejoin="miter" d="M 0.00183582 50.00118 L 613.361264 50.00118 " stroke="#121212" stroke-width="100" stroke-opacity="1" stroke-miterlimit="4"/><path stroke-linecap="butt" transform="matrix(-0.709244, 0.24387, -0.24387, -0.709244, 1204.924154, 710.674839)" fill="none" stroke-linejoin="miter" d="M 18.865384 87.188677 C 140.56568 37.602712 273.194545 37.603434 416.751979 87.190842 " stroke="#121212" stroke-width="100" stroke-opacity="1" stroke-miterlimit="4"/><path stroke-linecap="butt" transform="matrix(-0.653774, 0.367531, -0.367531, -0.653774, 1052.113767, 426.136119)" fill="none" stroke-linejoin="miter" d="M 21.832498 96.166464 C 148.640575 34.613468 265.827208 34.612539 373.392398 96.163677 " stroke="#121212" stroke-width="100" stroke-opacity="1" stroke-miterlimit="4"/><path stroke-linecap="butt" transform="matrix(-0.685486, 0.304317, -0.304317, -0.685486, 1141.697287, 558.637204)" fill="none" stroke-linejoin="miter" d="M 18.085575 92.840645 C 165.306474 35.720319 303.519434 35.717519 432.720231 92.841768 " stroke="#121212" stroke-width="100" stroke-opacity="1" stroke-miterlimit="4"/><path stroke-linecap="butt" transform="matrix(-0.75, 0, 0, -0.75, 818.319803, 664.181635)" fill="none" stroke-linejoin="miter" d="M -0.000679513 50.002601 L 613.363957 50.002601 " stroke="#121212" stroke-width="100" stroke-opacity="1" stroke-miterlimit="4"/></svg>